<svg width="40" height="40" viewBox="0 0 40 40" fill="none" xmlns="http://www.w3.org/2000/svg">
    <path d="M27.7744 16.885C27.3738 15.1827 26.3817 13.6673 24.9661 12.5954C23.5504 11.5234 21.798 10.9606 20.0054 11.0022H19.9954C18.2037 10.9599 16.452 11.5213 15.0363 12.5916C13.6205 13.6619 12.6275 15.1755 12.2251 16.8765C11.171 21.4063 14.0196 25.2418 16.5971 27.657C17.5091 28.5183 18.7295 29 19.9998 29C21.2701 29 22.4904 28.5183 23.4024 27.657C25.9812 25.2418 28.8298 21.4148 27.7744 16.885ZM20.0054 21.2828C19.4436 21.283 18.8943 21.121 18.4271 20.8171C17.9599 20.5132 17.5957 20.0811 17.3806 19.5756C17.1656 19.07 17.1093 18.5137 17.2189 17.977C17.3286 17.4403 17.5992 16.9473 17.9966 16.5605C18.3939 16.1736 18.9001 15.9103 19.4512 15.8037C20.0023 15.6972 20.5734 15.7522 21.0924 15.9619C21.6113 16.1716 22.0547 16.5265 22.3665 16.9817C22.6783 17.4369 22.8445 17.972 22.844 18.5192C22.8433 19.2522 22.544 19.9549 22.0118 20.4731C21.4795 20.9913 20.7579 21.2825 20.0054 21.2828Z" fill="#6366f1"/>
</svg>
